# xmcd
#
# Track frame offsets:
#	150
#	13170
#	26805
#	54780
#	69102
#	81740
#	98664
#	109291
#	120043
#	135177
#	145903
#	158248
#
# Disc length: 2274
#
# Revision: 5
# Processed by: cddbd v1.5.1PL0 Copyright (c) Steve Scherf et al.
# Submitted via: EasyCDDAExtractor 5.1.0
# Normalized: r3:TDELIM( - ),TSWAP
#
DISCID=9208e00c
DTITLE=B.B. King&Jimmy Reed - Back To Back
DYEAR=1900
DGENRE=blues
TTITLE0=BB King - Someday Baby
TTITLE1=BB King - Sneakin' Around
TTITLE2=BB King - Sweet Sixteen
TTITLE3=BB King - Whole Lotta Lovin'
TTITLE4=BB King - I Had A Woman
TTITLE5=BB King - Blue Shadows
TTITLE6=Jimmy Reed - Ain't That Lovin' You Baby
TTITLE7=Jimmy Reed - Baby,What Do You Want Me To Do
TTITLE8=Jimmy Reed - You Don't Have To Go
TTITLE9=Jimmy Reed - Aw Shucks
TTITLE10=Jimmy Reed - Bright Lights , Big City
TTITLE11=Jimmy Reed - Honest I Do
EXTD=
EXTT0=
EXTT1=
EXTT2=
EXTT3=
EXTT4=
EXTT5=
EXTT6=
EXTT7=
EXTT8=
EXTT9=
EXTT10=
EXTT11=
PLAYORDER=
